<svg width="70" height="70" viewBox="0 0 70 70" fill="none" xmlns="http://www.w3.org/2000/svg">
<path d="M30.3521 16.2167L11.666 35.0001L30.3521 53.7834C30.5209 54.005 30.7353 54.1878 30.9808 54.3193C31.2264 54.4509 31.4973 54.5281 31.7753 54.5459C32.0533 54.5636 32.3318 54.5214 32.5921 54.4221C32.8524 54.3228 33.0883 54.1688 33.2838 53.9704C33.4794 53.7721 33.63 53.534 33.7256 53.2723C33.8211 53.0107 33.8593 52.7316 33.8376 52.4538C33.8159 52.1761 33.7348 51.9063 33.5998 51.6627C33.4647 51.4191 33.2789 51.2073 33.0549 51.0417L19.0743 36.9445L56.2716 36.9445C56.7873 36.9445 57.2818 36.7396 57.6465 36.375C58.0112 36.0103 58.216 35.5157 58.216 35.0001C58.216 34.4844 58.0112 33.9898 57.6465 33.6251C57.2818 33.2605 56.7873 33.0556 56.2716 33.0556L19.0743 33.0556L33.0549 18.9584C33.4185 18.5922 33.6217 18.0967 33.6199 17.5807C33.6181 17.0647 33.4113 16.5706 33.0452 16.207C32.679 15.8434 32.1835 15.6402 31.6675 15.642C31.1515 15.6438 30.6574 15.8506 30.2938 16.2167L30.3521 16.2167Z" fill="black"/>
</svg>
