<svg width="180" height="70" viewBox="0 0 180 70" fill="none" xmlns="http://www.w3.org/2000/svg">
<path d="M8 56L20.4433 30.7623L30.7197 51.5061H56.0633L41.2216 21.6217L32.3166 39.5613L30.4347 35.7774L41.2216 14L62 56H8ZM13.9367 51.5061H27.0092L20.4433 38.1862L13.9367 51.5061Z" fill="url(#paint0_linear_663_1583)"/>
<path d="M111.676 32.0586V35.4766H100.484V43.582H113.473V47H96.207V21.4141H113.355V24.832H100.484V32.0586H111.676ZM121.891 47.4102C119.924 47.4102 118.408 46.9089 117.34 45.9062C116.272 44.8906 115.738 43.4714 115.738 41.6484C115.738 39.8125 116.461 38.3867 117.906 37.3711C119.352 36.3555 121.402 35.8477 124.059 35.8477H127.379V34.168C127.379 33.1654 127.086 32.3841 126.5 31.8242C125.914 31.2643 125.1 30.9844 124.059 30.9844C123.03 30.9844 122.223 31.2188 121.637 31.6875C121.064 32.1432 120.777 32.7487 120.777 33.5039H116.656L116.637 33.4062C116.559 31.8568 117.242 30.5156 118.688 29.3828C120.133 28.237 121.988 27.6641 124.254 27.6641C126.52 27.6641 128.316 28.237 129.645 29.3828C130.973 30.5156 131.637 32.1237 131.637 34.207V42.6641C131.637 44.2266 131.865 45.6849 132.32 47.0391L127.984 47.0586C127.672 46.069 127.477 45.138 127.398 44.2656C126.773 45.2031 125.986 45.9648 125.035 46.5508C124.085 47.1237 123.036 47.4102 121.891 47.4102ZM119.996 41.6094H120.016C120.016 42.3516 120.25 42.931 120.719 43.3477C121.201 43.7643 121.923 43.9727 122.887 43.9727C123.85 43.9727 124.762 43.7122 125.621 43.1914C126.48 42.6706 127.06 42.0521 127.359 41.3359V38.5234H123.961C122.763 38.5234 121.799 38.8229 121.07 39.4219C120.354 40.0078 119.996 40.737 119.996 41.6094ZM140.387 47H136.109V27.9766H140.016L140.289 30.7305C141.331 28.6602 142.828 27.625 144.781 27.625C145.276 27.625 145.719 27.6966 146.109 27.8398L145.582 31.8242L143.766 31.7656C142.138 31.7656 141.012 32.4362 140.387 33.7773V47ZM149.957 23.4062H154.234V28.0156H157.652V31.1797H154.234V41.6875C154.234 43.1458 154.853 43.875 156.09 43.875C156.585 43.875 157.027 43.7969 157.418 43.6406L157.867 46.7852C157.073 47.2018 156.116 47.4102 154.996 47.4102C151.637 47.4102 149.957 45.5026 149.957 41.6875V31.1797H147.066V28.0156H149.957V23.4062ZM165.68 30.4375C167.034 28.5625 168.779 27.625 170.914 27.625C173.049 27.625 174.664 28.2695 175.758 29.5586C176.865 30.8477 177.418 32.8008 177.418 35.418V47H173.16V35.3789C173.16 33.8945 172.867 32.8138 172.281 32.1367C171.695 31.4596 170.79 31.1211 169.566 31.1211C167.913 31.1211 166.611 31.7721 165.66 33.0742V47H161.402V19.5781H165.66L165.68 30.4375Z" fill="url(#paint1_linear_663_1583)"/>
<defs>
<linearGradient id="paint0_linear_663_1583" x1="8" y1="35" x2="62" y2="35" gradientUnits="userSpaceOnUse">
<stop stop-color="#FFD400"/>
<stop offset="1" stop-color="#997D2A"/>
</linearGradient>
<linearGradient id="paint1_linear_663_1583" x1="95.5" y1="35" x2="179" y2="34" gradientUnits="userSpaceOnUse">
<stop stop-color="#FFD400"/>
<stop offset="1" stop-color="#997D2A"/>
</linearGradient>
</defs>
</svg>
