<svg width="155" height="70" viewBox="0 0 155 70" fill="none" xmlns="http://www.w3.org/2000/svg">
<path d="M53.9165 27.9783C51.6032 28.4814 49.6071 29.7721 48.6719 31.9978C48.1087 33.3486 47.3212 36.8377 45.161 35.9353C44.1274 35.5088 44.1438 34.0267 44.2641 33.1025C44.5212 31.2049 45.3743 29.4713 45.9594 27.6666C46.561 25.7963 47.0805 23.915 47.4524 21.9791C48.6993 15.5697 48.3547 8.1869 43.8211 3.06268C43.0555 2.18768 41.1251 0.164247 39.8508 0.120497C39.0633 0.0986218 39.8399 1.02831 40.0587 1.34003C40.5016 1.97987 40.8735 2.6744 41.1579 3.40175C44.5102 11.9549 36.2469 18.4682 30.8165 23.5377C28.2133 25.9713 26.1352 28.5525 24.2649 31.5658C24.079 31.8557 23.6688 32.8291 23.1383 32.6267C22.5094 32.3861 22.4438 30.9478 22.2469 30.4119C21.8751 29.3838 21.3008 28.2627 20.5626 27.4588C19.1352 25.8947 17.1391 24.8392 14.979 24.9814C14.8969 24.9869 14.6618 25.0252 14.3719 25.0908C13.918 25.1892 12.704 25.3478 13.0321 26.0807C13.2016 26.458 13.6993 26.4252 14.0547 26.5291C18.6157 27.9291 18.5118 32.7088 17.7735 36.5478C16.4391 43.5369 12.7422 50.1432 15.3672 57.3291C18.4626 65.8002 28.1532 71.0885 36.9469 69.6338C39.3477 69.24 42.1149 68.4635 44.2696 67.3041C46.561 66.0682 49.0712 64.3783 50.8594 62.4752C53.1618 60.0307 54.6274 56.8971 55.0594 53.5775C55.568 49.7385 54.343 46.1182 53.2274 42.4924C51.8821 38.1174 50.3344 30.9752 55.9235 28.8369C56.1969 28.7275 56.7438 28.6455 56.9352 28.3557C57.6462 27.2947 54.2337 27.9127 53.9165 27.9783Z" fill="#ED6C30"/>
<path d="M37.2586 58.0071C38.418 58.9806 40.0422 58.5048 41.136 57.6735C41.7211 57.2306 42.2242 56.6618 42.5524 56.0001C42.6891 55.7157 42.8477 55.3548 42.8477 55.0321C42.8477 54.6001 42.5906 54.1735 42.7 53.7306C43.6188 53.5501 44.7563 56.1915 44.8711 56.804C45.7899 61.6329 41.2399 65.6142 36.8484 66.3853C29.4383 67.6814 25.1781 61.19 26.0313 55.4259C26.5617 51.8384 28.968 49.372 31.418 46.911C33.4469 44.8712 35.3281 43.1212 35.9844 40.4689C36.0992 39.9985 36.0719 39.2767 35.9352 38.8118C35.8203 38.4126 35.6016 38.0462 35.5906 37.6142C35.5578 36.7064 36.4383 37.8931 36.6406 38.1228C39.0797 40.8735 39.7742 44.9368 39.1235 48.4915C38.7024 50.7884 37.0617 52.429 36.4875 54.6275C36.1539 55.8798 36.1867 57.0993 37.2586 58.0071Z" fill="#FCC21B"/>
<path d="M111.402 32.6641V36.082H100.191V47H95.9141V21.4141H113.199V24.832H100.191V32.6641H111.402ZM120.816 27.9766V47H116.559V27.9766H120.816ZM120.816 19.5781V23.3281H116.559V19.5781H120.816ZM129.859 47H125.582V27.9766H129.488L129.762 30.7305C130.803 28.6602 132.301 27.625 134.254 27.625C134.749 27.625 135.191 27.6966 135.582 27.8398L135.055 31.8242L133.238 31.7656C131.611 31.7656 130.484 32.4362 129.859 33.7773V47ZM149.469 35.1836C149.469 33.9466 149.15 32.957 148.512 32.2148C147.887 31.4727 147.008 31.1016 145.875 31.1016C144.755 31.1016 143.85 31.5117 143.16 32.332C142.47 33.1393 142.047 34.207 141.891 35.5352L141.91 35.6328H149.469V35.1836ZM153.199 45.1641C151.467 46.6615 149.202 47.4102 146.402 47.4102C143.603 47.4102 141.396 46.5378 139.781 44.793C138.18 43.0482 137.379 40.776 137.379 37.9766V37.2734C137.379 34.487 138.167 32.1888 139.742 30.3789C141.331 28.556 143.362 27.651 145.836 27.6641C148.31 27.6641 150.23 28.4323 151.598 29.9688C152.978 31.4922 153.668 33.582 153.668 36.2383V38.7578H141.812L141.773 38.8555C141.852 40.4049 142.301 41.6484 143.121 42.5859C143.954 43.5234 145.074 43.9922 146.48 43.9922C147.6 43.9922 148.564 43.862 149.371 43.6016C150.191 43.3411 151.005 42.931 151.812 42.3711L153.18 45.1641H153.199Z" fill="url(#paint0_linear_663_1596)"/>
<defs>
<linearGradient id="paint0_linear_663_1596" x1="95.5" y1="35" x2="155" y2="35" gradientUnits="userSpaceOnUse">
<stop stop-color="#ED6C30"/>
<stop offset="1" stop-color="#FCC21B"/>
</linearGradient>
</defs>
</svg>
