<svg width="308" height="404" viewBox="0 0 308 404" fill="none" xmlns="http://www.w3.org/2000/svg">
<g filter="url(#filter0_d_705_2288)">
<rect x="5.5" y="1.5" width="297" height="393" rx="18.5" fill="url(#paint0_linear_705_2288)" stroke="url(#paint1_linear_705_2288)" stroke-width="3"/>
<path d="M92.6755 331.866C88.6621 337.139 84.5088 342.342 80.2155 347.476L76.5055 344.256C77.5555 337.932 78.5821 332.974 79.5855 329.381C77.0655 333.394 74.8138 337.419 72.8305 341.456C72.0371 343.042 71.1855 344.816 70.2755 346.776L66.5305 343.276C68.7005 338.889 70.5205 335.494 71.9905 333.091C74.5571 328.937 77.2521 325.017 80.0755 321.331L85.2205 325.846C83.8438 330.279 82.8171 334.561 82.1405 338.691C85.8505 334.187 89.8755 328.809 94.2155 322.556L99.2205 326.861C97.8205 331.387 96.7821 334.526 96.1055 336.276C95.4521 338.002 94.8921 339.449 94.4255 340.616C93.5855 342.716 92.4538 345.376 91.0305 348.596L86.8655 345.201C88.8021 341.281 90.1671 338.317 90.9605 336.311C91.7538 334.304 92.3255 332.822 92.6755 331.866ZM109.952 344.081C108.109 345.527 105.986 346.577 103.582 347.231L99.2423 343.206C99.2423 341.362 99.5223 339.554 100.082 337.781C100.642 336.007 101.471 334.409 102.567 332.986C103.664 331.562 105.017 330.384 106.627 329.451C108.261 328.494 110.139 327.922 112.262 327.736L114.572 331.271C114.852 330.827 115.447 330.057 116.357 328.961L119.787 331.901C117.477 334.911 115.564 338.131 114.047 341.561L113.942 341.631C115.296 341.281 116.882 340.686 118.702 339.846C120.522 338.982 121.677 338.422 122.167 338.166L122.937 341.701C121.561 342.704 119.274 343.999 116.077 345.586C114.817 346.216 113.674 346.717 112.647 347.091L109.952 344.081ZM104.142 342.191C106.639 341.514 108.914 339.857 110.967 337.221C111.574 335.891 112.029 334.234 112.332 332.251C109.929 332.484 107.957 333.546 106.417 335.436C104.901 337.302 104.142 339.554 104.142 342.191ZM130.715 330.816C132.885 330.582 134.483 330.326 135.51 330.046L136.315 333.826C134.261 334.339 131.648 334.642 128.475 334.736C127.051 337.536 125.99 340.079 125.29 342.366C127.18 342.039 129.198 341.572 131.345 340.966C133.491 340.336 135.65 339.402 137.82 338.166L138.555 341.701C136.431 343.171 134.005 344.431 131.275 345.481C128.591 346.507 126.211 347.091 124.135 347.231L119.795 343.206C121.171 338.632 123.516 333.814 126.83 328.751C127.856 327.164 128.953 325.636 130.12 324.166L133.235 327.036C132.325 328.296 131.485 329.556 130.715 330.816ZM141.504 342.681C147.221 341.934 152.191 340.429 156.414 338.166L157.184 341.701C153.591 343.964 149.601 345.609 145.214 346.636C143.744 346.962 142.297 347.161 140.874 347.231L136.534 343.206C136.534 341.549 136.639 340.266 136.849 339.356C137.759 335.506 139.987 332.402 143.534 330.046C145.121 328.996 146.731 328.214 148.364 327.701L153.964 331.866C153.847 332.402 153.521 333.254 152.984 334.421C152.097 336.381 151.397 337.722 150.884 338.446L146.474 335.646C147.734 334.059 148.527 332.729 148.854 331.656C146.614 332.612 144.794 334.152 143.394 336.276C142.134 338.189 141.504 340.324 141.504 342.681ZM162.828 334.071C164.998 332.414 167.494 330.839 170.318 329.346L174.553 332.671C173.783 335.984 172.429 338.971 170.493 341.631C172.826 340.837 175.474 339.682 178.438 338.166L179.173 341.701C178.216 342.331 176.758 343.136 174.798 344.116C171.438 345.772 169.116 346.811 167.833 347.231L163.493 344.151C164.893 342.471 166.059 340.814 166.993 339.181C167.949 337.524 168.568 336.077 168.848 334.841C165.791 336.357 163.773 337.431 162.793 338.061C161.836 338.691 160.973 339.274 160.203 339.811C159.059 342.634 158.184 345.107 157.578 347.231L153.413 344.536C154.183 341.899 155.874 337.956 158.488 332.706C160.868 327.899 163.003 324.096 164.893 321.296L168.463 323.991C166.503 327.164 164.624 330.524 162.828 334.071ZM186.764 326.476C186.228 325.916 185.959 325.239 185.959 324.446C185.959 323.652 186.228 322.987 186.764 322.451C187.324 321.891 188.001 321.611 188.794 321.611C189.588 321.611 190.253 321.891 190.789 322.451C191.349 322.987 191.629 323.652 191.629 324.446C191.629 325.239 191.349 325.916 190.789 326.476C190.253 327.012 189.588 327.281 188.794 327.281C188.001 327.281 187.324 327.012 186.764 326.476ZM181.479 341.876C183.859 341.152 186.718 339.916 190.054 338.166L190.789 341.701C188.526 343.171 185.796 344.606 182.599 346.006C181.526 346.472 180.476 346.881 179.449 347.231L175.424 343.521C176.568 340.394 178.621 336.497 181.584 331.831C182.471 330.431 183.334 329.206 184.174 328.156L187.639 330.711C185.936 333.044 184.279 335.856 182.669 339.146C182.203 340.126 181.806 341.036 181.479 341.876ZM196.706 334.106C199.039 332.262 201.454 330.676 203.951 329.346L208.186 332.671C207.416 335.984 206.062 338.971 204.126 341.631C206.459 340.837 209.107 339.682 212.071 338.166L212.806 341.701C211.849 342.331 210.391 343.136 208.431 344.116C205.071 345.772 202.749 346.811 201.466 347.231L197.126 344.151C198.526 342.471 199.692 340.814 200.626 339.181C201.582 337.524 202.201 336.077 202.481 334.841C199.494 336.241 196.647 337.874 193.941 339.741C192.867 342.307 191.957 344.804 191.211 347.231L187.046 344.536C187.839 341.852 189.076 338.831 190.756 335.471C192.272 332.461 193.859 329.917 195.516 327.841L199.051 330.396C198.234 331.492 197.452 332.729 196.706 334.106ZM207.517 348.806C208.964 347.499 210.644 346.367 212.557 345.411L210.597 343.556C210.597 341.712 210.901 339.916 211.507 338.166C212.091 336.416 212.954 334.852 214.097 333.476C215.241 332.076 216.641 330.921 218.297 330.011C219.954 329.101 221.844 328.552 223.967 328.366L225.927 331.656C226.651 330.606 227.327 329.707 227.957 328.961L231.352 331.901C229.999 333.697 228.552 335.972 227.012 338.726C226.546 339.566 226.137 340.382 225.787 341.176C229.357 340.149 232.017 339.146 233.767 338.166L234.502 341.701C232.589 343.124 230.512 344.396 228.272 345.516C227.456 345.936 226.744 346.251 226.137 346.461L224.632 344.781C223.722 348.841 222.416 352.002 220.712 354.266C220.129 355.059 219.487 355.829 218.787 356.576C216.151 356.506 213.339 356.097 210.352 355.351C209.396 355.117 208.509 354.861 207.692 354.581L207.517 348.806ZM215.497 342.681C216.874 342.284 217.924 341.876 218.647 341.456C220.001 340.616 221.167 339.554 222.147 338.271C222.847 336.731 223.361 334.946 223.687 332.916C221.307 333.149 219.336 334.176 217.772 335.996C216.256 337.792 215.497 340.021 215.497 342.681ZM211.052 351.361C213.339 351.897 215.112 352.166 216.372 352.166C217.819 350.929 219.009 348.911 219.942 346.111C216.279 347.581 213.316 349.331 211.052 351.361Z" fill="black"/>
<path d="M261.984 60.4175C224.722 45.1806 128.775 24.561 43.0874 63.9775" stroke="black" stroke-width="3"/>
<path d="M240.225 99.619C210.197 88.8534 132.852 74.3558 63.6869 102.49" stroke="black" stroke-width="3"/>
<path d="M58.4799 72.9286C59.3733 70.9552 60.1733 69.3886 60.8799 68.2286C62.0266 66.3219 63.2199 64.6352 64.4599 63.1686C63.5399 63.0086 62.7133 62.9286 61.9799 62.9286L62.8399 60.5486C65.3466 60.6286 67.5266 60.9552 69.3799 61.5286C70.0733 61.7419 70.7733 62.0019 71.4799 62.3086L73.0399 65.8086C72.1199 67.1152 70.9399 68.2486 69.4999 69.2086C68.0733 70.1552 66.5266 70.8552 64.8599 71.3086L63.5399 69.4286C62.4999 71.1752 61.5733 73.0419 60.7599 75.0286L58.4799 72.9286ZM63.8399 68.9286C66.6533 67.9552 68.7666 66.6152 70.1799 64.9086C68.9133 64.2419 67.2133 63.6952 65.0799 63.2686L66.7999 64.6886C65.7333 66.0352 64.7466 67.4486 63.8399 68.9286ZM72.0165 72.6686C72.5898 70.6019 73.6098 68.2619 75.0765 65.6486C76.0498 63.9152 77.1432 62.3752 78.3565 61.0286C78.9698 60.3486 79.6032 59.7752 80.2565 59.3086L83.6365 61.6886C83.1832 65.3286 81.5298 67.8952 78.6765 69.3886C77.7565 69.8686 76.7298 70.2486 75.5965 70.5286C75.2765 71.3152 75.0298 71.9886 74.8565 72.5486C76.5098 72.3219 77.7965 72.0686 78.7165 71.7886C80.5165 71.2552 82.0165 70.5886 83.2165 69.7886L83.6365 71.8086C81.6765 73.1686 79.4498 74.1152 76.9565 74.6486C76.1298 74.8219 75.3098 74.9286 74.4965 74.9686L72.0165 72.6686ZM76.7565 68.0286C77.9698 67.4552 78.9365 66.6286 79.6565 65.5486C80.3765 64.4686 80.8565 63.2019 81.0965 61.7486C80.0432 62.6952 78.9165 64.2019 77.7165 66.2686C77.3698 66.8552 77.0498 67.4419 76.7565 68.0286ZM88.5603 73.1686C87.5069 73.9952 86.2936 74.5952 84.9203 74.9686L82.4403 72.6686C82.4403 71.6152 82.6003 70.5819 82.9203 69.5686C83.2403 68.5552 83.7136 67.6419 84.3403 66.8286C84.9669 66.0152 85.7403 65.3419 86.6603 64.8086C87.5936 64.2619 88.6669 63.9352 89.8803 63.8286L91.2003 65.8486C91.3603 65.5952 91.7003 65.1552 92.2203 64.5286L94.1803 66.2086C92.8603 67.9286 91.7669 69.7686 90.9003 71.7286L90.8403 71.7686C91.6136 71.5686 92.5203 71.2286 93.5603 70.7486C94.6003 70.2552 95.2603 69.9352 95.5403 69.7886L95.9803 71.8086C95.1936 72.3819 93.8869 73.1219 92.0603 74.0286C91.3403 74.3886 90.6869 74.6752 90.1003 74.8886L88.5603 73.1686ZM85.2403 72.0886C86.6669 71.7019 87.9669 70.7552 89.1403 69.2486C89.4869 68.4886 89.7469 67.5419 89.9203 66.4086C88.5469 66.5419 87.4203 67.1486 86.5403 68.2286C85.6736 69.2952 85.2403 70.5819 85.2403 72.0886ZM103.124 71.4886C105.284 70.8619 106.798 70.2952 107.664 69.7886L108.104 71.8086C107.038 72.6086 105.844 73.3352 104.524 73.9886C104.058 74.2286 103.651 74.4086 103.304 74.5286L102.324 73.4486C101.951 75.1419 101.511 76.4952 101.004 77.5086C100.524 78.4419 99.8445 79.3752 98.9645 80.3086C97.4978 80.2686 95.8911 80.0352 94.1445 79.6086C93.5978 79.4752 93.0978 79.3286 92.6445 79.1686L92.5245 75.8686C93.4178 75.0819 94.4111 74.4152 95.5045 73.8686L94.3445 73.0286C94.4645 71.2686 95.3778 69.0019 97.0845 66.2286C97.6178 65.3619 98.2045 64.4952 98.8445 63.6286L100.924 65.2086C98.5911 68.4886 97.3311 70.9019 97.1445 72.4486C97.8511 72.3419 98.4178 72.1752 98.8445 71.9486C99.6978 71.4952 100.378 70.8352 100.884 69.9686C102.031 67.6752 103.058 65.8886 103.964 64.6086L106.084 66.2686C104.778 68.2686 103.791 70.0086 103.124 71.4886ZM94.5445 77.3286C95.7711 77.6086 96.7845 77.7619 97.5845 77.7886C98.4511 77.0552 99.1311 75.9019 99.6245 74.3286C97.4511 75.2086 95.7578 76.2086 94.5445 77.3286ZM120.419 72.0486C119.246 73.1952 117.939 74.1086 116.499 74.7886L113.999 72.6686C114.279 71.2419 114.613 70.0152 114.999 68.9886C115.626 67.3486 116.453 65.5952 117.479 63.7286L119.679 65.2286C118.906 66.6019 118.359 67.7086 118.039 68.5486C117.559 69.8152 117.213 70.9352 116.999 71.9086C117.879 71.5086 118.979 70.5219 120.299 68.9486C121.633 67.3752 122.813 65.6952 123.839 63.9086L126.039 65.4086C124.773 67.6352 123.939 69.3552 123.539 70.5686C123.393 71.0352 123.273 71.4819 123.179 71.9086C124.433 71.3352 126.046 69.6286 128.019 66.7886C128.593 65.9486 129.139 65.0752 129.659 64.1686L131.959 65.6686C130.786 67.6152 129.559 69.3086 128.279 70.7486C129.066 70.7086 129.979 70.5686 131.019 70.3286C132.059 70.0886 132.773 69.9086 133.159 69.7886L133.599 71.8086C132.453 72.4219 130.973 72.9886 129.159 73.5086C128.666 73.6419 128.246 73.7419 127.899 73.8086C127.886 73.8086 127.686 73.5886 127.299 73.1486C126.926 72.7086 126.713 72.4552 126.659 72.3886C125.473 73.4686 124.199 74.3286 122.839 74.9686L120.239 73.0286L120.419 72.0486ZM137.922 63.1086C137.615 62.7886 137.462 62.4019 137.462 61.9486C137.462 61.4952 137.615 61.1152 137.922 60.8086C138.242 60.4886 138.628 60.3286 139.082 60.3286C139.535 60.3286 139.915 60.4886 140.222 60.8086C140.542 61.1152 140.702 61.4952 140.702 61.9486C140.702 62.4019 140.542 62.7886 140.222 63.1086C139.915 63.4152 139.535 63.5686 139.082 63.5686C138.628 63.5686 138.242 63.4152 137.922 63.1086ZM134.902 71.9086C136.262 71.4952 137.895 70.7886 139.802 69.7886L140.222 71.8086C138.928 72.6486 137.368 73.4686 135.542 74.2686C134.928 74.5352 134.328 74.7686 133.742 74.9686L131.442 72.8486C132.095 71.0619 133.268 68.8352 134.962 66.1686C135.468 65.3686 135.962 64.6686 136.442 64.0686L138.422 65.5286C137.448 66.8619 136.502 68.4686 135.582 70.3486C135.315 70.9086 135.088 71.4286 134.902 71.9086ZM144.682 65.5886C145.922 65.4552 146.836 65.3086 147.422 65.1486L147.882 67.3086C146.709 67.6019 145.216 67.7752 143.402 67.8286C142.589 69.4286 141.982 70.8819 141.582 72.1886C142.662 72.0019 143.816 71.7352 145.042 71.3886C146.269 71.0286 147.502 70.4952 148.742 69.7886L149.162 71.8086C147.949 72.6486 146.562 73.3686 145.002 73.9686C143.469 74.5552 142.109 74.8886 140.922 74.9686L138.442 72.6686C139.229 70.0552 140.569 67.3019 142.462 64.4086C143.049 63.5019 143.676 62.6286 144.342 61.7886L146.122 63.4286C145.602 64.1486 145.122 64.8686 144.682 65.5886ZM152.408 67.4486C153.648 66.5019 155.074 65.6019 156.688 64.7486L159.108 66.6486C158.668 68.5419 157.894 70.2486 156.788 71.7686C158.121 71.3152 159.634 70.6552 161.328 69.7886L161.748 71.8086C161.201 72.1686 160.368 72.6286 159.248 73.1886C157.328 74.1352 156.001 74.7286 155.268 74.9686L152.788 73.2086C153.588 72.2486 154.254 71.3019 154.788 70.3686C155.334 69.4219 155.688 68.5952 155.848 67.8886C154.101 68.7552 152.948 69.3686 152.388 69.7286C151.841 70.0886 151.348 70.4219 150.908 70.7286C150.254 72.3419 149.754 73.7552 149.408 74.9686L147.028 73.4286C147.468 71.9219 148.434 69.6686 149.928 66.6686C151.288 63.9219 152.508 61.7486 153.588 60.1486L155.628 61.6886C154.508 63.5019 153.434 65.4219 152.408 67.4486ZM173.912 73.1686C172.858 73.9952 171.645 74.5952 170.272 74.9686L167.792 72.6686C167.792 71.6152 167.952 70.5819 168.272 69.5686C168.592 68.5552 169.065 67.6419 169.692 66.8286C170.318 66.0152 171.092 65.3419 172.012 64.8086C172.945 64.2619 174.018 63.9352 175.232 63.8286L176.552 65.8486C176.712 65.5952 177.052 65.1552 177.572 64.5286L179.532 66.2086C178.212 67.9286 177.118 69.7686 176.252 71.7286L176.192 71.7686C176.965 71.5686 177.872 71.2286 178.912 70.7486C179.952 70.2552 180.612 69.9352 180.892 69.7886L181.332 71.8086C180.545 72.3819 179.238 73.1219 177.412 74.0286C176.692 74.3886 176.038 74.6752 175.452 74.8886L173.912 73.1686ZM170.592 72.0886C172.018 71.7019 173.318 70.7552 174.492 69.2486C174.838 68.4886 175.098 67.5419 175.272 66.4086C173.898 66.5419 172.772 67.1486 171.892 68.2286C171.025 69.2952 170.592 70.5819 170.592 72.0886ZM184.696 67.4686C186.029 66.4152 187.409 65.5086 188.836 64.7486L191.256 66.6486C190.816 68.5419 190.043 70.2486 188.936 71.7686C190.269 71.3152 191.783 70.6552 193.476 69.7886L193.896 71.8086C193.349 72.1686 192.516 72.6286 191.396 73.1886C189.476 74.1352 188.149 74.7286 187.416 74.9686L184.936 73.2086C185.736 72.2486 186.403 71.3019 186.936 70.3686C187.483 69.4219 187.836 68.5952 187.996 67.8886C186.289 68.6886 184.663 69.6219 183.116 70.6886C182.503 72.1552 181.983 73.5819 181.556 74.9686L179.176 73.4286C179.629 71.8952 180.336 70.1686 181.296 68.2486C182.163 66.5286 183.069 65.0752 184.016 63.8886L186.036 65.3486C185.569 65.9752 185.123 66.6819 184.696 67.4686ZM200.594 72.1686C199.314 73.6486 197.627 74.5819 195.534 74.9686L192.694 72.5886C192.694 71.3086 192.947 70.0419 193.454 68.7886C194.094 67.2152 195.147 65.9419 196.614 64.9686C197.627 64.2886 198.727 63.8686 199.914 63.7086L203.094 66.4286C202.867 67.8686 202.481 69.1219 201.934 70.1886C202.894 70.1352 203.981 70.0019 205.194 69.7886L205.634 71.8086C203.901 72.5286 202.541 73.0152 201.554 73.2686L200.594 72.1686ZM195.374 72.2486C196.894 71.9019 198.161 70.9619 199.174 69.4286C199.601 68.7752 199.907 68.1486 200.094 67.5486C200.281 66.9486 200.381 66.4686 200.394 66.1086C199.314 66.2552 198.287 66.8286 197.314 67.8286C196.101 69.0686 195.454 70.5419 195.374 72.2486ZM210.073 65.5886C211.313 65.4552 212.226 65.3086 212.813 65.1486L213.273 67.3086C212.1 67.6019 210.606 67.7752 208.793 67.8286C207.98 69.4286 207.373 70.8819 206.973 72.1886C208.053 72.0019 209.206 71.7352 210.433 71.3886C211.66 71.0286 212.893 70.4952 214.133 69.7886L214.553 71.8086C213.34 72.6486 211.953 73.3686 210.393 73.9686C208.86 74.5552 207.5 74.8886 206.313 74.9686L203.833 72.6686C204.62 70.0552 205.96 67.3019 207.853 64.4086C208.44 63.5019 209.066 62.6286 209.733 61.7886L211.513 63.4286C210.993 64.1486 210.513 64.8686 210.073 65.5886ZM217.798 67.4486C219.038 66.5019 220.465 65.6019 222.078 64.7486L224.498 66.6486C224.058 68.5419 223.285 70.2486 222.178 71.7686C223.512 71.3152 225.025 70.6552 226.718 69.7886L227.138 71.8086C226.592 72.1686 225.758 72.6286 224.638 73.1886C222.718 74.1352 221.392 74.7286 220.658 74.9686L218.178 73.2086C218.978 72.2486 219.645 71.3019 220.178 70.3686C220.725 69.4219 221.078 68.5952 221.238 67.8886C219.492 68.7552 218.338 69.3686 217.778 69.7286C217.232 70.0886 216.738 70.4219 216.298 70.7286C215.645 72.3419 215.145 73.7552 214.798 74.9686L212.418 73.4286C212.858 71.9219 213.825 69.6686 215.318 66.6686C216.678 63.9219 217.898 61.7486 218.978 60.1486L221.018 61.6886C219.898 63.5019 218.825 65.4219 217.798 67.4486ZM230.636 70.5686C230.01 70.5686 229.516 70.5219 229.156 70.4286C228.943 70.9486 228.81 71.5952 228.756 72.3686C231.05 72.2352 233.263 71.7219 235.396 70.8286C236.116 70.5352 236.81 70.1886 237.476 69.7886L237.896 71.8086C236.656 72.5952 235.19 73.2886 233.496 73.8886C231.696 74.5286 229.996 74.8886 228.396 74.9686L225.916 72.6686C225.916 70.8286 226.416 69.1486 227.416 67.6286C228.136 66.5752 228.95 65.7419 229.856 65.1286C230.776 64.5152 231.656 64.0752 232.496 63.8086L235.876 66.6086C235.543 67.9952 234.91 69.0019 233.976 69.6286C233.043 70.2552 231.93 70.5686 230.636 70.5686ZM229.996 68.6286C230.77 68.6286 231.443 68.4152 232.016 67.9886C232.683 67.4819 233.016 66.7752 233.016 65.8686C231.67 66.6019 230.663 67.5219 229.996 68.6286ZM238.138 65.4686C238.778 64.6019 239.578 63.7019 240.538 62.7686L242.398 64.2086C242.251 64.8219 242.125 65.2686 242.018 65.5486C243.738 65.3619 244.978 65.1752 245.738 64.9886C246.498 64.8019 247.158 64.6352 247.718 64.4886L248.278 66.8686C247.731 67.0286 247.158 67.1686 246.558 67.2886C245.638 68.7419 244.871 70.2819 244.258 71.9086C246.471 71.1486 248.105 70.4419 249.158 69.7886L249.598 71.8086C248.371 72.6086 246.765 73.4286 244.778 74.2686C244.138 74.5352 243.525 74.7686 242.938 74.9686L240.818 72.8486C241.685 70.8619 242.611 69.1486 243.598 67.7086C242.665 67.7886 241.838 67.8419 241.118 67.8686C240.905 68.2686 240.331 69.2686 239.398 70.8686L237.918 71.8086L236.018 70.6886C237.125 69.4886 237.871 68.6486 238.258 68.1686C238.645 67.6886 238.978 67.2752 239.258 66.9286C238.871 66.5019 238.498 66.0152 238.138 65.4686Z" fill="black"/>
<line x1="261.386" y1="60.861" x2="239.395" y2="100.317" stroke="black" stroke-width="3"/>
<line x1="230.09" y1="96.7678" x2="226.173" y2="107.329" stroke="black" stroke-width="3"/>
<line x1="64.3997" y1="101.017" x2="79.2764" y2="113.307" stroke="black" stroke-width="3"/>
<line x1="240.714" y1="99.6248" x2="226.484" y2="106.991" stroke="black" stroke-width="3"/>
<line x1="77.9338" y1="113.195" x2="73.6438" y2="98.0549" stroke="black" stroke-width="3"/>
<line x1="44.0646" y1="63.2964" x2="64.7627" y2="101.459" stroke="black" stroke-width="3"/>
<line x1="224.957" y1="105.919" x2="269.587" y2="120.149" stroke="black" stroke-width="3"/>
<line x1="264.791" y1="92.8772" x2="269.319" y2="120.69" stroke="black" stroke-width="3"/>
<line x1="263.235" y1="93.2234" x2="291.212" y2="82.0234" stroke="black" stroke-width="3"/>
<line x1="256.805" y1="66.5217" x2="291.733" y2="82.0453" stroke="black" stroke-width="3"/>
<line y1="-1.5" x2="45.6728" y2="-1.5" transform="matrix(-0.948987 0.315316 0.29257 0.956244 79.6143 114.292)" stroke="black" stroke-width="3"/>
<line y1="-1.5" x2="28.4895" y2="-1.5" transform="matrix(-0.154341 0.988018 0.985913 0.167256 41.9248 99.8902)" stroke="black" stroke-width="3"/>
<line y1="-1.5" x2="29.4399" y2="-1.5" transform="matrix(-0.922909 -0.385017 -0.358597 0.933492 41.457 101.406)" stroke="black" stroke-width="3"/>
<line y1="-1.5" x2="37.3821" y2="-1.5" transform="matrix(-0.907399 0.42027 0.392298 0.919838 48.835 74.3606)" stroke="black" stroke-width="3"/>
</g>
<defs>
<filter id="filter0_d_705_2288" x="0" y="0" width="308" height="404" filterUnits="userSpaceOnUse" color-interpolation-filters="sRGB">
<feFlood flood-opacity="0" result="BackgroundImageFix"/>
<feColorMatrix in="SourceAlpha" type="matrix" values="0 0 0 0 0 0 0 0 0 0 0 0 0 0 0 0 0 0 127 0" result="hardAlpha"/>
<feOffset dy="4"/>
<feGaussianBlur stdDeviation="2"/>
<feComposite in2="hardAlpha" operator="out"/>
<feColorMatrix type="matrix" values="0 0 0 0 0 0 0 0 0 0 0 0 0 0 0 0 0 0 0.25 0"/>
<feBlend mode="normal" in2="BackgroundImageFix" result="effect1_dropShadow_705_2288"/>
<feBlend mode="normal" in="SourceGraphic" in2="effect1_dropShadow_705_2288" result="shape"/>
</filter>
<linearGradient id="paint0_linear_705_2288" x1="154" y1="0" x2="154" y2="396" gradientUnits="userSpaceOnUse">
<stop stop-color="#8EA17A"/>
<stop offset="1" stop-color="#5D8E4F"/>
</linearGradient>
<linearGradient id="paint1_linear_705_2288" x1="154" y1="0" x2="154" y2="396" gradientUnits="userSpaceOnUse">
<stop stop-color="#A541E1"/>
<stop offset="1" stop-color="#6F60E7"/>
</linearGradient>
</defs>
</svg>
