<svg width="300" height="396" viewBox="0 0 300 396" fill="none" xmlns="http://www.w3.org/2000/svg">
<rect x="1.5" y="1.5" width="297" height="393" rx="18.5" fill="url(#paint0_linear_705_2266)" stroke="url(#paint1_linear_705_2266)" stroke-width="3"/>
<path d="M61.9481 341.946C65.6348 341.689 68.9948 340.814 72.0281 339.321L73.3931 343.311C69.5665 345.667 65.1448 347.032 60.1281 347.406L55.6831 343.276C56.7331 338.702 58.5998 334.561 61.2831 330.851C64.3398 326.674 68.0498 323.664 72.4131 321.821L79.0631 326.616C78.4565 328.599 77.3598 330.897 75.7731 333.511C75.3298 334.234 74.9098 334.876 74.5131 335.436L70.4531 333.196C72.0398 330.466 73.1015 328.167 73.6381 326.301C70.7215 327.747 68.1431 329.964 65.9031 332.951C63.7565 335.867 62.4381 338.866 61.9481 341.946ZM85.3771 334.071C87.5471 332.414 90.0437 330.839 92.8671 329.346L97.1021 332.671C96.3321 335.984 94.9787 338.971 93.0421 341.631C95.3754 340.837 98.0237 339.682 100.987 338.166L101.722 341.701C100.765 342.331 99.3071 343.136 97.3471 344.116C93.9871 345.772 91.6654 346.811 90.3821 347.231L86.0421 344.151C87.4421 342.471 88.6087 340.814 89.5421 339.181C90.4987 337.524 91.1171 336.077 91.3971 334.841C88.3404 336.357 86.3221 337.431 85.3421 338.061C84.3854 338.691 83.5221 339.274 82.7521 339.811C81.6087 342.634 80.7337 345.107 80.1271 347.231L75.9621 344.536C76.7321 341.899 78.4237 337.956 81.0371 332.706C83.4171 327.899 85.5521 324.096 87.4421 321.296L91.0121 323.991C89.0521 327.164 87.1737 330.524 85.3771 334.071ZM110.329 344.081C108.485 345.527 106.362 346.577 103.959 347.231L99.6188 343.206C99.6188 341.362 99.8988 339.554 100.459 337.781C101.019 336.007 101.847 334.409 102.944 332.986C104.04 331.562 105.394 330.384 107.004 329.451C108.637 328.494 110.515 327.922 112.639 327.736L114.949 331.271C115.229 330.827 115.824 330.057 116.734 328.961L120.164 331.901C117.854 334.911 115.94 338.131 114.424 341.561L114.319 341.631C115.672 341.281 117.259 340.686 119.079 339.846C120.899 338.982 122.054 338.422 122.544 338.166L123.314 341.701C121.937 342.704 119.65 343.999 116.454 345.586C115.194 346.216 114.05 346.717 113.024 347.091L110.329 344.081ZM104.519 342.191C107.015 341.514 109.29 339.857 111.344 337.221C111.95 335.891 112.405 334.234 112.709 332.251C110.305 332.484 108.334 333.546 106.794 335.436C105.277 337.302 104.519 339.554 104.519 342.191ZM120.171 343.206C121.175 339.589 122.96 335.494 125.526 330.921C127.23 327.887 129.143 325.192 131.266 322.836C132.34 321.646 133.448 320.642 134.591 319.826L140.506 323.991C139.713 330.361 136.82 334.852 131.826 337.466C130.216 338.306 128.42 338.971 126.436 339.461C125.876 340.837 125.445 342.016 125.141 342.996C128.035 342.599 130.286 342.156 131.896 341.666C135.046 340.732 137.671 339.566 139.771 338.166L140.506 341.701C137.076 344.081 133.18 345.737 128.816 346.671C127.37 346.974 125.935 347.161 124.511 347.231L120.171 343.206ZM128.466 335.086C130.59 334.082 132.281 332.636 133.541 330.746C134.801 328.856 135.641 326.639 136.061 324.096C134.218 325.752 132.246 328.389 130.146 332.006C129.54 333.032 128.98 334.059 128.466 335.086ZM137.398 343.206C138.401 339.589 140.186 335.494 142.753 330.921C144.456 327.887 146.369 325.192 148.493 322.836C149.566 321.646 150.674 320.642 151.818 319.826L157.733 323.991C156.939 330.361 154.046 334.852 149.053 337.466C147.443 338.306 145.646 338.971 143.663 339.461C143.103 340.837 142.671 342.016 142.368 342.996C145.261 342.599 147.513 342.156 149.123 341.666C152.273 340.732 154.898 339.566 156.998 338.166L157.733 341.701C154.303 344.081 150.406 345.737 146.043 346.671C144.596 346.974 143.161 347.161 141.738 347.231L137.398 343.206ZM145.693 335.086C147.816 334.082 149.508 332.636 150.768 330.746C152.028 328.856 152.868 326.639 153.288 324.096C151.444 325.752 149.473 328.389 147.373 332.006C146.766 333.032 146.206 334.059 145.693 335.086ZM163.864 339.531C162.768 339.531 161.904 339.449 161.274 339.286C160.901 340.196 160.668 341.327 160.574 342.681C164.588 342.447 168.461 341.549 172.194 339.986C173.454 339.472 174.668 338.866 175.834 338.166L176.569 341.701C174.399 343.077 171.833 344.291 168.869 345.341C165.719 346.461 162.744 347.091 159.944 347.231L155.604 343.206C155.604 339.986 156.479 337.046 158.229 334.386C159.489 332.542 160.913 331.084 162.499 330.011C164.109 328.937 165.649 328.167 167.119 327.701L173.034 332.601C172.451 335.027 171.343 336.789 169.709 337.886C168.076 338.982 166.128 339.531 163.864 339.531ZM162.744 336.136C164.098 336.136 165.276 335.762 166.279 335.016C167.446 334.129 168.029 332.892 168.029 331.306C165.673 332.589 163.911 334.199 162.744 336.136ZM182.487 334.106C184.821 332.262 187.236 330.676 189.732 329.346L193.967 332.671C193.197 335.984 191.844 338.971 189.907 341.631C192.241 340.837 194.889 339.682 197.852 338.166L198.587 341.701C197.631 342.331 196.172 343.136 194.212 344.116C190.852 345.772 188.531 346.811 187.247 347.231L182.907 344.151C184.307 342.471 185.474 340.814 186.407 339.181C187.364 337.524 187.982 336.077 188.262 334.841C185.276 336.241 182.429 337.874 179.722 339.741C178.649 342.307 177.739 344.804 176.992 347.231L172.827 344.536C173.621 341.852 174.857 338.831 176.537 335.471C178.054 332.461 179.641 329.917 181.297 327.841L184.832 330.396C184.016 331.492 183.234 332.729 182.487 334.106ZM193.299 348.806C194.746 347.499 196.426 346.367 198.339 345.411L196.379 343.556C196.379 341.712 196.682 339.916 197.289 338.166C197.872 336.416 198.736 334.852 199.879 333.476C201.022 332.076 202.422 330.921 204.079 330.011C205.736 329.101 207.626 328.552 209.749 328.366L211.709 331.656C212.432 330.606 213.109 329.707 213.739 328.961L217.134 331.901C215.781 333.697 214.334 335.972 212.794 338.726C212.327 339.566 211.919 340.382 211.569 341.176C215.139 340.149 217.799 339.146 219.549 338.166L220.284 341.701C218.371 343.124 216.294 344.396 214.054 345.516C213.237 345.936 212.526 346.251 211.919 346.461L210.414 344.781C209.504 348.841 208.197 352.002 206.494 354.266C205.911 355.059 205.269 355.829 204.569 356.576C201.932 356.506 199.121 356.097 196.134 355.351C195.177 355.117 194.291 354.861 193.474 354.581L193.299 348.806ZM201.279 342.681C202.656 342.284 203.706 341.876 204.429 341.456C205.782 340.616 206.949 339.554 207.929 338.271C208.629 336.731 209.142 334.946 209.469 332.916C207.089 333.149 205.117 334.176 203.554 335.996C202.037 337.792 201.279 340.021 201.279 342.681ZM196.834 351.361C199.121 351.897 200.894 352.166 202.154 352.166C203.601 350.929 204.791 348.911 205.724 346.111C202.061 347.581 199.097 349.331 196.834 351.361ZM226.413 339.531C225.316 339.531 224.453 339.449 223.823 339.286C223.45 340.196 223.216 341.327 223.123 342.681C227.136 342.447 231.01 341.549 234.743 339.986C236.003 339.472 237.216 338.866 238.383 338.166L239.118 341.701C236.948 343.077 234.381 344.291 231.418 345.341C228.268 346.461 225.293 347.091 222.493 347.231L218.153 343.206C218.153 339.986 219.028 337.046 220.778 334.386C222.038 332.542 223.461 331.084 225.048 330.011C226.658 328.937 228.198 328.167 229.668 327.701L235.583 332.601C235 335.027 233.891 336.789 232.258 337.886C230.625 338.982 228.676 339.531 226.413 339.531ZM225.293 336.136C226.646 336.136 227.825 335.762 228.828 335.016C229.995 334.129 230.578 332.892 230.578 331.306C228.221 332.589 226.46 334.199 225.293 336.136Z" fill="black"/>
<path d="M257.984 60.4175C220.721 45.1806 124.774 24.561 39.0869 63.9776" stroke="black" stroke-width="3"/>
<path d="M236.224 99.619C206.197 88.8534 128.851 74.3558 59.6859 102.49" stroke="black" stroke-width="3"/>
<path d="M67.5407 73.8471C68.6574 71.3804 69.6574 69.4221 70.5407 67.9721C71.9741 65.5888 73.4657 63.4804 75.0157 61.6471C73.8657 61.4471 72.8324 61.3471 71.9157 61.3471L72.9907 58.3721C76.1241 58.4721 78.8491 58.8804 81.1657 59.5971C82.0324 59.8638 82.9074 60.1888 83.7907 60.5721L85.7407 64.9471C84.5907 66.5804 83.1157 67.9971 81.3157 69.1971C79.5324 70.3804 77.5991 71.2554 75.5157 71.8221L73.8657 69.4721C72.5657 71.6554 71.4074 73.9888 70.3907 76.4721L67.5407 73.8471ZM74.2407 68.8471C77.7574 67.6304 80.3991 65.9554 82.1657 63.8221C80.5824 62.9888 78.4574 62.3054 75.7907 61.7721L77.9407 63.5471C76.6074 65.2304 75.3741 66.9971 74.2407 68.8471ZM84.4614 73.5221C85.1781 70.9388 86.4531 68.0138 88.2864 64.7471C89.5031 62.5804 90.8698 60.6554 92.3864 58.9721C93.1531 58.1221 93.9448 57.4054 94.7614 56.8221L98.9864 59.7971C98.4198 64.3471 96.3531 67.5554 92.7864 69.4221C91.6364 70.0221 90.3531 70.4971 88.9364 70.8471C88.5364 71.8304 88.2281 72.6721 88.0114 73.3721C90.0781 73.0888 91.6864 72.7721 92.8364 72.4221C95.0864 71.7554 96.9614 70.9221 98.4614 69.9221L98.9864 72.4471C96.5364 74.1471 93.7531 75.3304 90.6364 75.9971C89.6031 76.2138 88.5781 76.3471 87.5614 76.3971L84.4614 73.5221ZM90.3864 67.7221C91.9031 67.0054 93.1114 65.9721 94.0114 64.6221C94.9114 63.2721 95.5114 61.6888 95.8114 59.8721C94.4948 61.0554 93.0864 62.9388 91.5864 65.5221C91.1531 66.2554 90.7531 66.9888 90.3864 67.7221ZM105.141 74.1471C103.824 75.1804 102.308 75.9304 100.591 76.3971L97.4911 73.5221C97.4911 72.2054 97.6911 70.9138 98.0911 69.6471C98.4911 68.3804 99.0828 67.2388 99.8661 66.2221C100.649 65.2054 101.616 64.3638 102.766 63.6971C103.933 63.0138 105.274 62.6054 106.791 62.4721L108.441 64.9971C108.641 64.6804 109.066 64.1304 109.716 63.3471L112.166 65.4471C110.516 67.5971 109.149 69.8971 108.066 72.3471L107.991 72.3971C108.958 72.1471 110.091 71.7221 111.391 71.1221C112.691 70.5054 113.516 70.1054 113.866 69.9221L114.416 72.4471C113.433 73.1638 111.799 74.0888 109.516 75.2221C108.616 75.6721 107.799 76.0304 107.066 76.2971L105.141 74.1471ZM100.991 72.7971C102.774 72.3138 104.399 71.1304 105.866 69.2471C106.299 68.2971 106.624 67.1138 106.841 65.6971C105.124 65.8638 103.716 66.6221 102.616 67.9721C101.533 69.3054 100.991 70.9138 100.991 72.7971ZM123.346 72.0471C126.046 71.2638 127.938 70.5554 129.021 69.9221L129.571 72.4471C128.238 73.4471 126.746 74.3554 125.096 75.1721C124.513 75.4721 124.005 75.6971 123.571 75.8471L122.346 74.4971C121.88 76.6138 121.33 78.3054 120.696 79.5721C120.096 80.7388 119.246 81.9054 118.146 83.0721C116.313 83.0221 114.305 82.7304 112.121 82.1971C111.438 82.0304 110.813 81.8471 110.246 81.6471L110.096 77.5221C111.213 76.5388 112.455 75.7054 113.821 75.0221L112.371 73.9721C112.521 71.7721 113.663 68.9388 115.796 65.4721C116.463 64.3888 117.196 63.3054 117.996 62.2221L120.596 64.1971C117.68 68.2971 116.105 71.3138 115.871 73.2471C116.755 73.1138 117.463 72.9054 117.996 72.6221C119.063 72.0554 119.913 71.2304 120.546 70.1471C121.98 67.2804 123.263 65.0471 124.396 63.4471L127.046 65.5221C125.413 68.0221 124.18 70.1971 123.346 72.0471ZM112.621 79.3471C114.155 79.6971 115.421 79.8888 116.421 79.9221C117.505 79.0054 118.355 77.5638 118.971 75.5971C116.255 76.6971 114.138 77.9471 112.621 79.3471ZM144.965 72.7471C143.498 74.1804 141.865 75.3221 140.065 76.1721L136.94 73.5221C137.29 71.7388 137.707 70.2054 138.19 68.9221C138.973 66.8721 140.007 64.6804 141.29 62.3471L144.04 64.2221C143.073 65.9388 142.39 67.3221 141.99 68.3721C141.39 69.9554 140.957 71.3554 140.69 72.5721C141.79 72.0721 143.165 70.8388 144.815 68.8721C146.482 66.9054 147.957 64.8054 149.24 62.5721L151.99 64.4471C150.407 67.2304 149.365 69.3804 148.865 70.8971C148.682 71.4804 148.532 72.0388 148.415 72.5721C149.982 71.8554 151.998 69.7221 154.465 66.1721C155.182 65.1221 155.865 64.0304 156.515 62.8971L159.39 64.7721C157.923 67.2054 156.39 69.3221 154.79 71.1221C155.773 71.0721 156.915 70.8971 158.215 70.5971C159.515 70.2971 160.407 70.0721 160.89 69.9221L161.44 72.4471C160.007 73.2138 158.157 73.9221 155.89 74.5721C155.273 74.7388 154.748 74.8638 154.315 74.9471C154.298 74.9471 154.048 74.6721 153.565 74.1221C153.098 73.5721 152.832 73.2554 152.765 73.1721C151.282 74.5221 149.69 75.5971 147.99 76.3971L144.74 73.9721L144.965 72.7471ZM166.843 61.5721C166.46 61.1721 166.268 60.6888 166.268 60.1221C166.268 59.5554 166.46 59.0804 166.843 58.6971C167.243 58.2971 167.726 58.0971 168.293 58.0971C168.86 58.0971 169.335 58.2971 169.718 58.6971C170.118 59.0804 170.318 59.5554 170.318 60.1221C170.318 60.6888 170.118 61.1721 169.718 61.5721C169.335 61.9554 168.86 62.1471 168.293 62.1471C167.726 62.1471 167.243 61.9554 166.843 61.5721ZM163.068 72.5721C164.768 72.0554 166.81 71.1721 169.193 69.9221L169.718 72.4471C168.101 73.4971 166.151 74.5221 163.868 75.5221C163.101 75.8554 162.351 76.1471 161.618 76.3971L158.743 73.7471C159.56 71.5138 161.026 68.7304 163.143 65.3971C163.776 64.3971 164.393 63.5221 164.993 62.7721L167.468 64.5971C166.251 66.2638 165.068 68.2721 163.918 70.6221C163.585 71.3221 163.301 71.9721 163.068 72.5721ZM175.294 64.6721C176.844 64.5054 177.985 64.3221 178.719 64.1221L179.294 66.8221C177.827 67.1888 175.96 67.4054 173.694 67.4721C172.677 69.4721 171.919 71.2888 171.419 72.9221C172.769 72.6888 174.21 72.3554 175.744 71.9221C177.277 71.4721 178.819 70.8054 180.369 69.9221L180.894 72.4471C179.377 73.4971 177.644 74.3971 175.694 75.1471C173.777 75.8804 172.077 76.2971 170.594 76.3971L167.494 73.5221C168.477 70.2554 170.152 66.8138 172.519 63.1971C173.252 62.0638 174.035 60.9721 174.869 59.9221L177.094 61.9721C176.444 62.8721 175.844 63.7721 175.294 64.6721ZM184.95 66.9971C186.5 65.8138 188.284 64.6888 190.3 63.6221L193.325 65.9971C192.775 68.3638 191.809 70.4971 190.425 72.3971C192.092 71.8304 193.984 71.0054 196.1 69.9221L196.625 72.4471C195.942 72.8971 194.9 73.4721 193.5 74.1721C191.1 75.3554 189.442 76.0971 188.525 76.3971L185.425 74.1971C186.425 72.9971 187.259 71.8138 187.925 70.6471C188.609 69.4638 189.05 68.4304 189.25 67.5471C187.067 68.6304 185.625 69.3971 184.925 69.8471C184.242 70.2971 183.625 70.7138 183.075 71.0971C182.259 73.1138 181.634 74.8804 181.2 76.3971L178.225 74.4721C178.775 72.5888 179.984 69.7721 181.85 66.0221C183.55 62.5888 185.075 59.8721 186.425 57.8721L188.975 59.7971C187.575 62.0638 186.234 64.4638 184.95 66.9971ZM210.081 69.3221C208.231 71.6888 206.772 74.0638 205.706 76.4471L202.981 73.9221C204.064 71.8888 205.489 69.7638 207.256 67.5471L205.756 66.6971L207.906 63.9971L209.531 64.8971C211.564 62.7304 213.531 60.9304 215.431 59.4971L217.281 61.1721C217.531 60.1388 217.731 59.1221 217.881 58.1221L221.006 60.8221C220.022 65.8221 218.031 71.1804 215.031 76.8971L212.181 74.2971C212.714 73.3304 213.097 72.6221 213.331 72.1721C212.414 71.1554 211.331 70.2054 210.081 69.3221ZM212.256 66.7721C213.156 67.4554 213.981 68.1971 214.731 68.9971C215.747 66.4638 216.497 64.2388 216.981 62.3221C215.514 63.4721 213.939 64.9554 212.256 66.7721ZM220.594 73.7971C223.044 68.2804 226.028 63.1804 229.544 58.4971L232.094 61.0971C230.394 63.4471 229.003 65.5971 227.919 67.5471C226.003 71.0138 224.519 73.9804 223.469 76.4471L220.594 73.7971Z" fill="black"/>
<line x1="257.385" y1="60.861" x2="235.394" y2="100.317" stroke="black" stroke-width="3"/>
<line x1="226.089" y1="96.7678" x2="222.172" y2="107.329" stroke="black" stroke-width="3"/>
<line x1="60.3987" y1="101.017" x2="75.2754" y2="113.307" stroke="black" stroke-width="3"/>
<line x1="236.714" y1="99.6248" x2="222.484" y2="106.991" stroke="black" stroke-width="3"/>
<line x1="73.9328" y1="113.195" x2="69.6429" y2="98.0548" stroke="black" stroke-width="3"/>
<line x1="40.0642" y1="63.2964" x2="60.7622" y2="101.459" stroke="black" stroke-width="3"/>
<line x1="220.956" y1="105.919" x2="265.586" y2="120.149" stroke="black" stroke-width="3"/>
<line x1="260.79" y1="92.8772" x2="265.318" y2="120.69" stroke="black" stroke-width="3"/>
<line x1="259.234" y1="93.2234" x2="287.211" y2="82.0234" stroke="black" stroke-width="3"/>
<line x1="252.804" y1="66.5217" x2="287.732" y2="82.0453" stroke="black" stroke-width="3"/>
<line y1="-1.5" x2="45.6728" y2="-1.5" transform="matrix(-0.948987 0.315316 0.29257 0.956244 75.6138 114.292)" stroke="black" stroke-width="3"/>
<line y1="-1.5" x2="28.4895" y2="-1.5" transform="matrix(-0.154341 0.988018 0.985913 0.167256 37.9243 99.8903)" stroke="black" stroke-width="3"/>
<line y1="-1.5" x2="29.4399" y2="-1.5" transform="matrix(-0.922909 -0.385017 -0.358597 0.933492 37.4561 101.406)" stroke="black" stroke-width="3"/>
<line y1="-1.5" x2="37.3821" y2="-1.5" transform="matrix(-0.907399 0.42027 0.392298 0.919838 44.8345 74.3606)" stroke="black" stroke-width="3"/>
<defs>
<linearGradient id="paint0_linear_705_2266" x1="150" y1="0" x2="150" y2="396" gradientUnits="userSpaceOnUse">
<stop stop-color="#D7DDC2"/>
<stop offset="1" stop-color="#D3D8AA"/>
</linearGradient>
<linearGradient id="paint1_linear_705_2266" x1="150" y1="0" x2="150" y2="396" gradientUnits="userSpaceOnUse">
<stop stop-color="#A541E1"/>
<stop offset="1" stop-color="#6F60E7"/>
</linearGradient>
</defs>
</svg>
