<svg width="188" height="70" viewBox="0 0 188 70" fill="none" xmlns="http://www.w3.org/2000/svg">
<path d="M30.4035 13.6471C32.2439 10.5175 33.1656 8.9513 34.481 8.71796C34.8243 8.65586 35.176 8.65586 35.5193 8.71796C36.8347 8.9513 37.7564 10.5175 39.5968 13.6471L44.4618 21.9188C47.862 27.6998 50.515 33.8888 52.3572 40.3375C55.3527 50.8171 47.4864 61.25 36.5839 61.25H33.4164C22.5168 61.25 14.6477 50.8171 17.6431 40.3375C19.4854 33.8888 22.1384 27.6998 25.5385 21.9188L30.4035 13.6471Z" fill="url(#paint0_linear_663_1590)" stroke="black" stroke-width="2"/>
<path d="M34.9997 52.5002C33.7157 52.5004 32.4675 52.0769 31.4486 51.2953C30.4298 50.5138 29.6973 49.418 29.3647 48.1777" stroke="black" stroke-width="2" stroke-linecap="round"/>
<path d="M97.9219 21.4141L102.023 40.1836L107.16 21.4141H110.559L115.754 40.3008L119.816 21.4141H124.016L117.922 47H114.035L108.938 28.6211H108.82L103.684 47H99.7969L93.7227 21.4141H97.9219ZM131.926 47.4102C129.96 47.4102 128.443 46.9089 127.375 45.9062C126.307 44.8906 125.773 43.4714 125.773 41.6484C125.773 39.8125 126.496 38.3867 127.941 37.3711C129.387 36.3555 131.438 35.8477 134.094 35.8477H137.414V34.168C137.414 33.1654 137.121 32.3841 136.535 31.8242C135.949 31.2643 135.135 30.9844 134.094 30.9844C133.065 30.9844 132.258 31.2188 131.672 31.6875C131.099 32.1432 130.812 32.7487 130.812 33.5039H126.691L126.672 33.4062C126.594 31.8568 127.277 30.5156 128.723 29.3828C130.168 28.237 132.023 27.6641 134.289 27.6641C136.555 27.6641 138.352 28.237 139.68 29.3828C141.008 30.5156 141.672 32.1237 141.672 34.207V42.6641C141.672 44.2266 141.9 45.6849 142.355 47.0391L138.02 47.0586C137.707 46.069 137.512 45.138 137.434 44.2656C136.809 45.2031 136.021 45.9648 135.07 46.5508C134.12 47.1237 133.072 47.4102 131.926 47.4102ZM130.031 41.6094H130.051C130.051 42.3516 130.285 42.931 130.754 43.3477C131.236 43.7643 131.958 43.9727 132.922 43.9727C133.885 43.9727 134.797 43.7122 135.656 43.1914C136.516 42.6706 137.095 42.0521 137.395 41.3359V38.5234H133.996C132.798 38.5234 131.835 38.8229 131.105 39.4219C130.389 40.0078 130.031 40.737 130.031 41.6094ZM147.219 23.4062H151.496V28.0156H154.914V31.1797H151.496V41.6875C151.496 43.1458 152.115 43.875 153.352 43.875C153.846 43.875 154.289 43.7969 154.68 43.6406L155.129 46.7852C154.335 47.2018 153.378 47.4102 152.258 47.4102C148.898 47.4102 147.219 45.5026 147.219 41.6875V31.1797H144.328V28.0156H147.219V23.4062ZM170.109 35.1836C170.109 33.9466 169.79 32.957 169.152 32.2148C168.527 31.4727 167.648 31.1016 166.516 31.1016C165.396 31.1016 164.491 31.5117 163.801 32.332C163.111 33.1393 162.688 34.207 162.531 35.5352L162.551 35.6328H170.109V35.1836ZM173.84 45.1641C172.108 46.6615 169.842 47.4102 167.043 47.4102C164.243 47.4102 162.036 46.5378 160.422 44.793C158.82 43.0482 158.02 40.776 158.02 37.9766V37.2734C158.02 34.487 158.807 32.1888 160.383 30.3789C161.971 28.556 164.003 27.651 166.477 27.6641C168.951 27.6641 170.871 28.4323 172.238 29.9688C173.618 31.4922 174.309 33.582 174.309 36.2383V38.7578H162.453L162.414 38.8555C162.492 40.4049 162.941 41.6484 163.762 42.5859C164.595 43.5234 165.715 43.9922 167.121 43.9922C168.241 43.9922 169.204 43.862 170.012 43.6016C170.832 43.3411 171.646 42.931 172.453 42.3711L173.82 45.1641H173.84ZM182.023 47H177.746V27.9766H181.652L181.926 30.7305C182.967 28.6602 184.465 27.625 186.418 27.625C186.913 27.625 187.355 27.6966 187.746 27.8398L187.219 31.8242L185.402 31.7656C183.775 31.7656 182.648 32.4362 182.023 33.7773V47Z" fill="url(#paint1_linear_663_1590)"/>
<defs>
<linearGradient id="paint0_linear_663_1590" x1="35.0002" y1="8.67139" x2="35.0002" y2="61.25" gradientUnits="userSpaceOnUse">
<stop offset="0.0001" stop-color="#6CC1FF"/>
<stop offset="1" stop-color="#0C8CE9"/>
</linearGradient>
<linearGradient id="paint1_linear_663_1590" x1="93" y1="21.5" x2="188" y2="47" gradientUnits="userSpaceOnUse">
<stop stop-color="#0C8CE9"/>
<stop offset="1" stop-color="#6CC1FF"/>
</linearGradient>
</defs>
</svg>
