<svg width="186" height="70" viewBox="0 0 186 70" fill="none" xmlns="http://www.w3.org/2000/svg">
<path d="M44.0082 23.4364C31.8553 15.586 19.2772 21.2215 7.65607 8.91683C4.94904 6.04574 6.52131 41.1141 21.0682 54.4032C31.7035 64.1102 48.1248 63.0274 53.6619 53.5938C59.199 44.1602 56.1611 31.2854 44.0082 23.4364Z" fill="url(#paint0_linear_663_1602)" stroke="black" stroke-width="3" stroke-linecap="round" stroke-linejoin="round"/>
<path d="M23.6523 34.5898C35.4102 45.6641 47.5781 52.2266 63.5742 54.6875" stroke="black" stroke-width="3" stroke-linecap="round" stroke-linejoin="round"/>
<path d="M98.1523 21.4141L102.254 40.1836L107.391 21.4141H110.789L115.984 40.3008L120.047 21.4141H124.246L118.152 47H114.266L109.168 28.6211H109.051L103.914 47H100.027L93.9531 21.4141H98.1523ZM130.301 37.7617C130.301 39.6367 130.665 41.1536 131.395 42.3125C132.124 43.4583 133.243 44.0312 134.754 44.0312C136.264 44.0312 137.384 43.4518 138.113 42.293C138.868 41.1341 139.246 39.6237 139.246 37.7617V37.3906C139.246 35.5677 138.868 34.0768 138.113 32.918C137.384 31.7331 136.264 31.1406 134.754 31.1406C133.243 31.1406 132.117 31.7266 131.375 32.8984C130.646 34.0573 130.281 35.5482 130.281 37.3711L130.301 37.7617ZM126.023 37.3711C126.023 34.5586 126.798 32.2409 128.348 30.418C129.897 28.5951 132.026 27.6836 134.734 27.6836C137.456 27.6836 139.591 28.5951 141.141 30.418C142.69 32.2018 143.465 34.513 143.465 37.3516V37.7227C143.465 40.5872 142.684 42.918 141.121 44.7148C139.572 46.4987 137.436 47.3906 134.715 47.3906C132.007 47.3906 129.891 46.4857 128.367 44.6758C126.818 42.8919 126.043 40.5742 126.043 37.7227L126.023 37.3711ZM150.691 37.7617C150.691 39.6367 151.056 41.1536 151.785 42.3125C152.514 43.4583 153.634 44.0312 155.145 44.0312C156.655 44.0312 157.775 43.4518 158.504 42.293C159.259 41.1341 159.637 39.6237 159.637 37.7617V37.3906C159.637 35.5677 159.259 34.0768 158.504 32.918C157.775 31.7331 156.655 31.1406 155.145 31.1406C153.634 31.1406 152.508 31.7266 151.766 32.8984C151.036 34.0573 150.672 35.5482 150.672 37.3711L150.691 37.7617ZM146.414 37.3711C146.414 34.5586 147.189 32.2409 148.738 30.418C150.288 28.5951 152.417 27.6836 155.125 27.6836C157.846 27.6836 159.982 28.5951 161.531 30.418C163.081 32.2018 163.855 34.513 163.855 37.3516V37.7227C163.855 40.5872 163.074 42.918 161.512 44.7148C159.962 46.4987 157.827 47.3906 155.105 47.3906C152.397 47.3906 150.281 46.4857 148.758 44.6758C147.208 42.8919 146.434 40.5742 146.434 37.7227L146.414 37.3711ZM166.824 38.1719V37.8008C166.824 34.7148 167.475 32.2539 168.777 30.418C170.092 28.582 171.915 27.6641 174.246 27.6641C176.264 27.6641 177.898 28.4714 179.148 30.0859V19.6172H183.406V47.0391H179.832L179.402 44.6758C178.152 46.4987 176.395 47.4102 174.129 47.4102C171.876 47.4102 170.092 46.5768 168.777 44.9102C167.475 43.2305 166.824 40.9844 166.824 38.1719ZM171.082 37.8008V38.1719C171.082 39.9948 171.427 41.4141 172.117 42.4297C172.82 43.4323 173.882 43.9336 175.301 43.9336C177.033 43.9336 178.322 43.1849 179.168 41.6875V33.4062C178.296 31.9089 177.02 31.1602 175.34 31.1602C173.921 31.1602 172.853 31.7526 172.137 32.9375C171.434 34.1224 171.082 35.7435 171.082 37.8008Z" fill="url(#paint1_linear_663_1602)"/>
<defs>
<linearGradient id="paint0_linear_663_1602" x1="31.4448" y1="8.75049" x2="31.4448" y2="61.1937" gradientUnits="userSpaceOnUse">
<stop stop-color="#769550"/>
<stop offset="1" stop-color="#A5FF39"/>
</linearGradient>
<linearGradient id="paint1_linear_663_1602" x1="94.5" y1="35" x2="186" y2="35" gradientUnits="userSpaceOnUse">
<stop stop-color="#A5FF39"/>
<stop offset="1" stop-color="#769550"/>
</linearGradient>
</defs>
</svg>
